<svg width="20" height="20" viewBox="0 0 20 20" fill="none" xmlns="http://www.w3.org/2000/svg">
<g clip-path="url(#clip0_129_539)">
<path d="M10.7799 15.5556L19.68 6.65536C19.886 6.44951 19.9995 6.17472 19.9995 5.88171C19.9995 5.58871 19.886 5.31391 19.68 5.10806L19.0247 4.45262C18.5977 4.02612 17.9038 4.02612 17.4774 4.45262L10.0037 11.9264L2.52161 4.44433C2.31559 4.23847 2.04096 4.12482 1.74812 4.12482C1.45495 4.12482 1.18032 4.23847 0.974139 4.44433L0.319022 5.09977C0.113009 5.30578 -0.000485897 5.58041 -0.000485897 5.87342C-0.000485897 6.16643 0.113009 6.44122 0.319022 6.64707L9.22724 15.5556C9.43391 15.762 9.70984 15.8753 10.0032 15.8746C10.2976 15.8753 10.5734 15.762 10.7799 15.5556Z" fill="#A04955"/>
</g>
<defs>
<clipPath id="clip0_129_539">
<rect width="20" height="20" fill="white" transform="translate(19.9995 -0.000244141) rotate(90)"/>
</clipPath>
</defs>
</svg>
